<?xml version="1.0" encoding="UTF-8" standalone="no"?>
<!DOCTYPE svg PUBLIC "-//W3C//DTD SVG 1.1//EN" "http://www.w3.org/Graphics/SVG/1.1/DTD/svg11.dtd">
<svg width="100%" height="100%" viewBox="0 0 544 162" version="1.1" xmlns="http://www.w3.org/2000/svg" xmlns:xlink="http://www.w3.org/1999/xlink" xml:space="preserve" xmlns:serif="http://www.serif.com/" style="fill-rule:evenodd;clip-rule:evenodd;stroke-linejoin:round;stroke-miterlimit:2;">
    <g transform="matrix(1,0,0,1,-4108.21,-1418.99)">
        <g transform="matrix(1,0,0,1,-0.333333,0)">
            <g transform="matrix(1,0,0,1,278.327,12.8955)">
                <path d="M3904.13,1545.92L3904.13,1562.11L3835.5,1562.11L3835.5,1492.62L3851.43,1492.62C3853.99,1501.63 3862.28,1508.23 3872.1,1508.23C3877.54,1508.23 3882.74,1506.17 3886.69,1502.52L3886.69,1510.92L3895.09,1510.92C3891.44,1514.86 3889.38,1520.06 3889.38,1525.51C3889.38,1535.02 3895.57,1543.09 3904.13,1545.92ZM3917.6,1562.11L3917.6,1545.92C3926.16,1543.09 3932.35,1535.02 3932.35,1525.51C3932.35,1520.06 3930.29,1514.86 3926.64,1510.92L3935.04,1510.92L3935.04,1502.52C3938.98,1506.17 3944.18,1508.23 3949.63,1508.23C3959.45,1508.23 3967.74,1501.63 3970.3,1492.62L3986.23,1492.62L3986.23,1562.11L3917.6,1562.11ZM3917.6,1427.57L3917.6,1411.38L3986.23,1411.38L3986.23,1479.16L3969.74,1479.16C3966.67,1471.04 3958.82,1465.25 3949.63,1465.25C3944.18,1465.25 3938.98,1467.32 3935.04,1470.96L3935.04,1462.56L3926.64,1462.56C3930.29,1458.62 3932.35,1453.42 3932.35,1447.98C3932.35,1438.47 3926.16,1430.39 3917.6,1427.57ZM3851.99,1479.16L3835.5,1479.16L3835.5,1411.38L3904.13,1411.38L3904.13,1427.57C3895.57,1430.39 3889.38,1438.47 3889.38,1447.98C3889.38,1453.42 3891.44,1458.62 3895.09,1462.56L3886.69,1462.56L3886.69,1470.96C3882.74,1467.32 3877.54,1465.25 3872.1,1465.25C3862.91,1465.25 3855.05,1471.04 3851.99,1479.16Z" style="stroke:white;stroke-width:10.56px;"/>
            </g>
        </g>
        <g transform="matrix(1,0,0,1,-0.333333,0)">
            <g transform="matrix(0.762717,0,0,0.762717,1351.39,522.15)">
                <g transform="matrix(95.8914,0,0,95.8914,3835.47,1267.12)">
                    <path d="M0.155,-0.68L0.331,-0.202L0.356,-0.111L0.347,-0.111L0.372,-0.202L0.548,-0.68L0.683,-0.68L0.427,-0L0.269,-0L0.012,-0.68L0.155,-0.68Z" style="fill-rule:nonzero;"/>
                </g>
                <g transform="matrix(95.8914,0,0,95.8914,3897.32,1267.12)">
                    <rect x="0.067" y="-0.68" width="0.135" height="0.68" style="fill-rule:nonzero;"/>
                </g>
                <g transform="matrix(95.8914,0,0,95.8914,3918.32,1267.12)">
                    <path d="M0.181,-0.509C0.181,-0.488 0.187,-0.472 0.199,-0.46C0.21,-0.447 0.226,-0.438 0.245,-0.431C0.264,-0.424 0.286,-0.418 0.31,-0.413C0.334,-0.408 0.359,-0.403 0.385,-0.398C0.41,-0.393 0.435,-0.386 0.459,-0.377C0.483,-0.368 0.505,-0.357 0.525,-0.343C0.544,-0.328 0.56,-0.31 0.571,-0.287C0.582,-0.264 0.588,-0.235 0.588,-0.2C0.588,-0.155 0.576,-0.116 0.554,-0.084C0.531,-0.051 0.499,-0.027 0.459,-0.01C0.419,0.007 0.373,0.015 0.322,0.015C0.27,0.015 0.224,0.007 0.184,-0.009C0.143,-0.025 0.11,-0.049 0.084,-0.082C0.057,-0.115 0.04,-0.156 0.031,-0.205L0.172,-0.205C0.181,-0.169 0.198,-0.141 0.224,-0.122C0.249,-0.103 0.282,-0.093 0.323,-0.093C0.365,-0.093 0.397,-0.101 0.418,-0.118C0.439,-0.134 0.45,-0.156 0.45,-0.183C0.45,-0.205 0.444,-0.223 0.433,-0.236C0.422,-0.249 0.406,-0.26 0.387,-0.268C0.368,-0.275 0.346,-0.282 0.322,-0.287C0.298,-0.292 0.273,-0.298 0.248,-0.304C0.222,-0.309 0.197,-0.316 0.173,-0.325C0.148,-0.333 0.126,-0.344 0.107,-0.358C0.088,-0.372 0.072,-0.39 0.061,-0.413C0.05,-0.435 0.044,-0.463 0.044,-0.497C0.044,-0.533 0.054,-0.566 0.073,-0.596C0.092,-0.626 0.121,-0.65 0.158,-0.668C0.195,-0.686 0.241,-0.695 0.294,-0.695C0.34,-0.695 0.383,-0.687 0.422,-0.672C0.46,-0.657 0.493,-0.633 0.52,-0.601C0.546,-0.569 0.562,-0.527 0.569,-0.476L0.426,-0.476C0.418,-0.515 0.403,-0.543 0.38,-0.561C0.357,-0.578 0.327,-0.587 0.29,-0.587C0.256,-0.587 0.229,-0.58 0.21,-0.566C0.191,-0.551 0.181,-0.532 0.181,-0.509Z" style="fill-rule:nonzero;"/>
                </g>
                <g transform="matrix(95.8914,0,0,95.8914,3972.88,1267.12)">
                    <path d="M0.627,-0.259C0.627,-0.202 0.616,-0.154 0.593,-0.113C0.57,-0.072 0.537,-0.041 0.495,-0.019C0.453,0.004 0.403,0.015 0.344,0.015C0.285,0.015 0.235,0.004 0.193,-0.019C0.15,-0.041 0.118,-0.072 0.095,-0.113C0.072,-0.154 0.061,-0.202 0.061,-0.259L0.061,-0.68L0.196,-0.68L0.196,-0.259C0.196,-0.208 0.209,-0.167 0.235,-0.138C0.261,-0.109 0.297,-0.094 0.344,-0.094C0.391,-0.094 0.428,-0.109 0.454,-0.138C0.48,-0.167 0.493,-0.208 0.493,-0.259L0.493,-0.68L0.627,-0.68L0.627,-0.259Z" style="fill-rule:nonzero;"/>
                </g>
                <g transform="matrix(95.8914,0,0,95.8914,4031.66,1267.12)">
                    <path d="M0.176,-0.141L0.176,-0.245L0.509,-0.245L0.509,-0.141L0.176,-0.141ZM0.541,-0L0.364,-0.478L0.339,-0.565L0.349,-0.565L0.324,-0.478L0.147,-0L0.012,-0L0.268,-0.68L0.427,-0.68L0.683,-0L0.541,-0Z" style="fill-rule:nonzero;"/>
                </g>
                <g transform="matrix(95.8914,0,0,95.8914,4093.51,1267.12)">
                    <path d="M0.067,-0L0.067,-0.68L0.202,-0.68L0.202,-0L0.067,-0ZM0.165,-0L0.165,-0.109L0.517,-0.109L0.517,-0L0.165,-0Z" style="fill-rule:nonzero;"/>
                </g>
                <g transform="matrix(95.8914,0,0,95.8914,4145.68,1267.12)">
                </g>
                <g transform="matrix(95.8914,0,0,95.8914,3835.47,1361.26)">
                    <path d="M0.176,-0.141L0.176,-0.245L0.509,-0.245L0.509,-0.141L0.176,-0.141ZM0.541,-0L0.364,-0.478L0.339,-0.565L0.349,-0.565L0.324,-0.478L0.147,-0L0.012,-0L0.268,-0.68L0.427,-0.68L0.683,-0L0.541,-0Z" style="fill-rule:nonzero;"/>
                </g>
                <g transform="matrix(95.8914,0,0,95.8914,3897.32,1361.26)">
                    <path d="M0.067,-0L0.067,-0.68L0.202,-0.68L0.202,-0L0.067,-0ZM0.165,-0L0.165,-0.109L0.517,-0.109L0.517,-0L0.165,-0Z" style="fill-rule:nonzero;"/>
                </g>
                <g transform="matrix(95.8914,0,0,95.8914,3942.1,1361.26)">
                    <path d="M0.657,-0.47L0.516,-0.47C0.505,-0.507 0.487,-0.535 0.46,-0.554C0.432,-0.573 0.4,-0.583 0.362,-0.583C0.325,-0.583 0.293,-0.573 0.266,-0.554C0.239,-0.534 0.218,-0.506 0.204,-0.47C0.189,-0.433 0.182,-0.39 0.182,-0.339C0.182,-0.288 0.189,-0.245 0.203,-0.209C0.217,-0.173 0.238,-0.145 0.265,-0.126C0.292,-0.107 0.324,-0.097 0.362,-0.097C0.398,-0.097 0.43,-0.106 0.457,-0.125C0.484,-0.143 0.503,-0.17 0.514,-0.205L0.656,-0.205C0.644,-0.158 0.624,-0.118 0.596,-0.085C0.567,-0.052 0.533,-0.028 0.494,-0.011C0.454,0.006 0.411,0.015 0.364,0.015C0.298,0.015 0.241,0.001 0.193,-0.028C0.145,-0.057 0.108,-0.097 0.083,-0.15C0.057,-0.203 0.044,-0.266 0.044,-0.339C0.044,-0.412 0.057,-0.475 0.083,-0.529C0.109,-0.582 0.146,-0.622 0.194,-0.652C0.242,-0.681 0.299,-0.695 0.366,-0.695C0.413,-0.695 0.457,-0.687 0.497,-0.67C0.537,-0.653 0.571,-0.627 0.6,-0.594C0.628,-0.561 0.647,-0.519 0.657,-0.47Z" style="fill-rule:nonzero;"/>
                </g>
                <g transform="matrix(95.8914,0,0,95.8914,4003.57,1361.26)">
                    <path d="M0.067,-0L0.067,-0.68L0.202,-0.68L0.202,-0L0.067,-0ZM0.503,-0L0.503,-0.68L0.637,-0.68L0.637,-0L0.503,-0ZM0.165,-0.294L0.165,-0.404L0.529,-0.404L0.529,-0.294L0.165,-0.294Z" style="fill-rule:nonzero;"/>
                </g>
                <g transform="matrix(95.8914,0,0,95.8914,4066.37,1361.26)">
                    <path d="M0.067,-0L0.067,-0.68L0.202,-0.68L0.202,-0L0.067,-0ZM0.165,-0L0.165,-0.107L0.545,-0.107L0.545,-0L0.165,-0ZM0.165,-0.573L0.165,-0.68L0.545,-0.68L0.545,-0.573L0.165,-0.573ZM0.165,-0.297L0.165,-0.403L0.507,-0.403L0.507,-0.297L0.165,-0.297Z" style="fill-rule:nonzero;"/>
                </g>
                <g transform="matrix(95.8914,0,0,95.8914,4117.77,1361.26)">
                    <path d="M0.067,-0L0.067,-0.68L0.194,-0.68L0.202,-0L0.067,-0ZM0.68,-0L0.687,-0.68L0.814,-0.68L0.814,-0L0.68,-0ZM0.489,-0L0.392,-0L0.245,-0.373L0.146,-0.68L0.246,-0.68L0.418,-0.241L0.451,-0.129L0.435,-0.129L0.469,-0.241L0.64,-0.68L0.734,-0.68L0.635,-0.371L0.489,-0Z" style="fill-rule:nonzero;"/>
                </g>
                <g transform="matrix(95.8914,0,0,95.8914,4197.46,1361.26)">
                    <rect x="0.067" y="-0.68" width="0.135" height="0.68" style="fill-rule:nonzero;"/>
                </g>
                <g transform="matrix(95.8914,0,0,95.8914,4218.46,1361.26)">
                    <path d="M0.181,-0.509C0.181,-0.488 0.187,-0.472 0.199,-0.46C0.21,-0.447 0.226,-0.438 0.245,-0.431C0.264,-0.424 0.286,-0.418 0.31,-0.413C0.334,-0.408 0.359,-0.403 0.385,-0.398C0.41,-0.393 0.435,-0.386 0.459,-0.377C0.483,-0.368 0.505,-0.357 0.525,-0.343C0.544,-0.328 0.56,-0.31 0.571,-0.287C0.582,-0.264 0.588,-0.235 0.588,-0.2C0.588,-0.155 0.576,-0.116 0.554,-0.084C0.531,-0.051 0.499,-0.027 0.459,-0.01C0.419,0.007 0.373,0.015 0.322,0.015C0.27,0.015 0.224,0.007 0.184,-0.009C0.143,-0.025 0.11,-0.049 0.084,-0.082C0.057,-0.115 0.04,-0.156 0.031,-0.205L0.172,-0.205C0.181,-0.169 0.198,-0.141 0.224,-0.122C0.249,-0.103 0.282,-0.093 0.323,-0.093C0.365,-0.093 0.397,-0.101 0.418,-0.118C0.439,-0.134 0.45,-0.156 0.45,-0.183C0.45,-0.205 0.444,-0.223 0.433,-0.236C0.422,-0.249 0.406,-0.26 0.387,-0.268C0.368,-0.275 0.346,-0.282 0.322,-0.287C0.298,-0.292 0.273,-0.298 0.248,-0.304C0.222,-0.309 0.197,-0.316 0.173,-0.325C0.148,-0.333 0.126,-0.344 0.107,-0.358C0.088,-0.372 0.072,-0.39 0.061,-0.413C0.05,-0.435 0.044,-0.463 0.044,-0.497C0.044,-0.533 0.054,-0.566 0.073,-0.596C0.092,-0.626 0.121,-0.65 0.158,-0.668C0.195,-0.686 0.241,-0.695 0.294,-0.695C0.34,-0.695 0.383,-0.687 0.422,-0.672C0.46,-0.657 0.493,-0.633 0.52,-0.601C0.546,-0.569 0.562,-0.527 0.569,-0.476L0.426,-0.476C0.418,-0.515 0.403,-0.543 0.38,-0.561C0.357,-0.578 0.327,-0.587 0.29,-0.587C0.256,-0.587 0.229,-0.58 0.21,-0.566C0.191,-0.551 0.181,-0.532 0.181,-0.509Z" style="fill-rule:nonzero;"/>
                </g>
                <g transform="matrix(95.8914,0,0,95.8914,4269.86,1361.26)">
                    <path d="M0.246,-0L0.246,-0.68L0.381,-0.68L0.381,-0L0.246,-0ZM0.027,-0.569L0.027,-0.68L0.6,-0.68L0.6,-0.569L0.027,-0.569Z" style="fill-rule:nonzero;"/>
                </g>
                <g transform="matrix(95.8914,0,0,95.8914,4329.98,1361.26)">
                </g>
            </g>
        </g>
    </g>
</svg>
