<?xml version="1.0" encoding="UTF-8" standalone="no"?>
<!DOCTYPE svg PUBLIC "-//W3C//DTD SVG 1.1//EN" "http://www.w3.org/Graphics/SVG/1.1/DTD/svg11.dtd">
<svg width="100%" height="100%" viewBox="0 0 604 151" version="1.1" xmlns="http://www.w3.org/2000/svg" xmlns:xlink="http://www.w3.org/1999/xlink" xml:space="preserve" xmlns:serif="http://www.serif.com/" style="fill-rule:evenodd;clip-rule:evenodd;stroke-linejoin:round;stroke-miterlimit:2;">
    <g transform="matrix(1,0,0,1,-3658,-1200)">
        <g transform="matrix(1,0,0,1,-0.333333,0)">
            <g transform="matrix(0.815478,0,0,0.815478,1420.32,188.669)">
                <g transform="matrix(1,0,0,1,1578.01,772.097)">
                    <path d="M1250.57,652.903L1166.4,652.903L1166.4,567.702L1180.93,567.702L1180.93,638.376L1250.57,638.376L1250.57,652.903ZM1336.71,567.702L1351.23,567.702L1351.23,652.903L1267.07,652.903L1267.07,638.376L1336.71,638.376L1336.71,567.702ZM1267.07,482.6L1267.07,468.073L1351.23,468.073L1351.23,551.193L1336.71,551.193L1336.71,482.6L1267.07,482.6ZM1166.4,551.193L1166.4,468.073L1250.57,468.073L1250.57,482.6L1180.93,482.6L1180.93,551.193L1166.4,551.193Z"/>
                </g>
                <g transform="matrix(1.55409,0,0,1.55409,761.685,367.881)">
                    <path d="M1278.8,625.395L1288.38,625.395C1290.4,632.499 1296.94,637.708 1304.69,637.708C1308.99,637.708 1313.09,636.08 1316.2,633.202L1316.2,639.83L1322.83,639.83C1319.95,642.942 1318.33,647.046 1318.33,651.342C1318.33,658.845 1323.21,665.216 1329.97,667.447L1329.97,677.107C1325.3,676.148 1321.08,673.95 1317.67,670.871C1312.33,666.056 1308.98,659.087 1308.98,651.342C1308.98,649.749 1309.12,648.173 1309.4,646.631C1307.86,646.912 1306.29,647.056 1304.69,647.056C1296.95,647.056 1289.98,643.701 1285.16,638.365C1281.94,634.792 1279.68,630.331 1278.8,625.395ZM1340.59,667.447C1347.35,665.216 1352.24,658.845 1352.24,651.342C1352.24,647.046 1350.61,642.942 1347.73,639.83L1354.36,639.83L1354.36,633.202C1357.47,636.08 1361.58,637.708 1365.87,637.708C1373.62,637.708 1380.16,632.499 1382.18,625.395L1391.77,625.395C1390.88,630.331 1388.62,634.792 1385.4,638.365C1380.59,643.701 1373.62,647.056 1365.87,647.056C1364.28,647.056 1362.7,646.912 1361.16,646.631C1361.44,648.173 1361.59,649.749 1361.59,651.342C1361.59,659.087 1358.23,666.056 1352.89,670.871C1349.48,673.95 1345.26,676.148 1340.59,677.107L1340.59,667.447ZM1381.74,614.772C1379.32,608.361 1373.12,603.797 1365.87,603.797C1361.58,603.797 1357.47,605.426 1354.36,608.303L1354.36,601.675L1347.73,601.675C1350.61,598.563 1352.24,594.46 1352.24,590.164C1352.24,582.661 1347.35,576.289 1340.59,574.058L1340.59,564.398C1345.26,565.357 1349.48,567.556 1352.89,570.634C1358.23,575.45 1361.59,582.418 1361.59,590.164C1361.59,591.757 1361.44,593.333 1361.16,594.874C1362.7,594.594 1364.28,594.449 1365.87,594.449C1373.62,594.449 1380.59,597.805 1385.4,603.14C1388.33,606.387 1390.46,610.368 1391.49,614.772L1381.74,614.772ZM1317.67,570.634C1321.08,567.556 1325.3,565.357 1329.97,564.398L1329.97,574.058C1323.21,576.289 1318.33,582.661 1318.33,590.164C1318.33,594.46 1319.95,598.563 1322.83,601.675L1316.2,601.675L1316.2,608.303C1313.09,605.426 1308.99,603.797 1304.69,603.797C1297.44,603.797 1291.24,608.361 1288.82,614.772L1279.07,614.772C1280.1,610.368 1282.23,606.387 1285.16,603.14C1289.98,597.805 1296.95,594.449 1304.69,594.449C1306.29,594.449 1307.86,594.594 1309.4,594.874C1309.12,593.333 1308.98,591.757 1308.98,590.164C1308.98,582.418 1312.33,575.45 1317.67,570.634Z"/>
                </g>
            </g>
        </g>
        <g transform="matrix(1,0,0,1,-0.333333,0)">
            <g transform="matrix(0.885289,0,0,0.885289,430.436,139.351)">
                <g transform="matrix(95.8914,0,0,95.8914,3835.47,1267.12)">
                    <path d="M0.155,-0.68L0.331,-0.202L0.356,-0.111L0.347,-0.111L0.372,-0.202L0.548,-0.68L0.683,-0.68L0.427,-0L0.269,-0L0.012,-0.68L0.155,-0.68Z" style="fill-rule:nonzero;"/>
                </g>
                <g transform="matrix(95.8914,0,0,95.8914,3897.32,1267.12)">
                    <rect x="0.067" y="-0.68" width="0.135" height="0.68" style="fill-rule:nonzero;"/>
                </g>
                <g transform="matrix(95.8914,0,0,95.8914,3918.32,1267.12)">
                    <path d="M0.181,-0.509C0.181,-0.488 0.187,-0.472 0.199,-0.46C0.21,-0.447 0.226,-0.438 0.245,-0.431C0.264,-0.424 0.286,-0.418 0.31,-0.413C0.334,-0.408 0.359,-0.403 0.385,-0.398C0.41,-0.393 0.435,-0.386 0.459,-0.377C0.483,-0.368 0.505,-0.357 0.525,-0.343C0.544,-0.328 0.56,-0.31 0.571,-0.287C0.582,-0.264 0.588,-0.235 0.588,-0.2C0.588,-0.155 0.576,-0.116 0.554,-0.084C0.531,-0.051 0.499,-0.027 0.459,-0.01C0.419,0.007 0.373,0.015 0.322,0.015C0.27,0.015 0.224,0.007 0.184,-0.009C0.143,-0.025 0.11,-0.049 0.084,-0.082C0.057,-0.115 0.04,-0.156 0.031,-0.205L0.172,-0.205C0.181,-0.169 0.198,-0.141 0.224,-0.122C0.249,-0.103 0.282,-0.093 0.323,-0.093C0.365,-0.093 0.397,-0.101 0.418,-0.118C0.439,-0.134 0.45,-0.156 0.45,-0.183C0.45,-0.205 0.444,-0.223 0.433,-0.236C0.422,-0.249 0.406,-0.26 0.387,-0.268C0.368,-0.275 0.346,-0.282 0.322,-0.287C0.298,-0.292 0.273,-0.298 0.248,-0.304C0.222,-0.309 0.197,-0.316 0.173,-0.325C0.148,-0.333 0.126,-0.344 0.107,-0.358C0.088,-0.372 0.072,-0.39 0.061,-0.413C0.05,-0.435 0.044,-0.463 0.044,-0.497C0.044,-0.533 0.054,-0.566 0.073,-0.596C0.092,-0.626 0.121,-0.65 0.158,-0.668C0.195,-0.686 0.241,-0.695 0.294,-0.695C0.34,-0.695 0.383,-0.687 0.422,-0.672C0.46,-0.657 0.493,-0.633 0.52,-0.601C0.546,-0.569 0.562,-0.527 0.569,-0.476L0.426,-0.476C0.418,-0.515 0.403,-0.543 0.38,-0.561C0.357,-0.578 0.327,-0.587 0.29,-0.587C0.256,-0.587 0.229,-0.58 0.21,-0.566C0.191,-0.551 0.181,-0.532 0.181,-0.509Z" style="fill-rule:nonzero;"/>
                </g>
                <g transform="matrix(95.8914,0,0,95.8914,3972.88,1267.12)">
                    <path d="M0.627,-0.259C0.627,-0.202 0.616,-0.154 0.593,-0.113C0.57,-0.072 0.537,-0.041 0.495,-0.019C0.453,0.004 0.403,0.015 0.344,0.015C0.285,0.015 0.235,0.004 0.193,-0.019C0.15,-0.041 0.118,-0.072 0.095,-0.113C0.072,-0.154 0.061,-0.202 0.061,-0.259L0.061,-0.68L0.196,-0.68L0.196,-0.259C0.196,-0.208 0.209,-0.167 0.235,-0.138C0.261,-0.109 0.297,-0.094 0.344,-0.094C0.391,-0.094 0.428,-0.109 0.454,-0.138C0.48,-0.167 0.493,-0.208 0.493,-0.259L0.493,-0.68L0.627,-0.68L0.627,-0.259Z" style="fill-rule:nonzero;"/>
                </g>
                <g transform="matrix(95.8914,0,0,95.8914,4031.66,1267.12)">
                    <path d="M0.176,-0.141L0.176,-0.245L0.509,-0.245L0.509,-0.141L0.176,-0.141ZM0.541,-0L0.364,-0.478L0.339,-0.565L0.349,-0.565L0.324,-0.478L0.147,-0L0.012,-0L0.268,-0.68L0.427,-0.68L0.683,-0L0.541,-0Z" style="fill-rule:nonzero;"/>
                </g>
                <g transform="matrix(95.8914,0,0,95.8914,4093.51,1267.12)">
                    <path d="M0.067,-0L0.067,-0.68L0.202,-0.68L0.202,-0L0.067,-0ZM0.165,-0L0.165,-0.109L0.517,-0.109L0.517,-0L0.165,-0Z" style="fill-rule:nonzero;"/>
                </g>
                <g transform="matrix(95.8914,0,0,95.8914,4145.68,1267.12)">
                </g>
                <g transform="matrix(95.8914,0,0,95.8914,3835.47,1361.26)">
                    <path d="M0.176,-0.141L0.176,-0.245L0.509,-0.245L0.509,-0.141L0.176,-0.141ZM0.541,-0L0.364,-0.478L0.339,-0.565L0.349,-0.565L0.324,-0.478L0.147,-0L0.012,-0L0.268,-0.68L0.427,-0.68L0.683,-0L0.541,-0Z" style="fill-rule:nonzero;"/>
                </g>
                <g transform="matrix(95.8914,0,0,95.8914,3897.32,1361.26)">
                    <path d="M0.067,-0L0.067,-0.68L0.202,-0.68L0.202,-0L0.067,-0ZM0.165,-0L0.165,-0.109L0.517,-0.109L0.517,-0L0.165,-0Z" style="fill-rule:nonzero;"/>
                </g>
                <g transform="matrix(95.8914,0,0,95.8914,3942.1,1361.26)">
                    <path d="M0.657,-0.47L0.516,-0.47C0.505,-0.507 0.487,-0.535 0.46,-0.554C0.432,-0.573 0.4,-0.583 0.362,-0.583C0.325,-0.583 0.293,-0.573 0.266,-0.554C0.239,-0.534 0.218,-0.506 0.204,-0.47C0.189,-0.433 0.182,-0.39 0.182,-0.339C0.182,-0.288 0.189,-0.245 0.203,-0.209C0.217,-0.173 0.238,-0.145 0.265,-0.126C0.292,-0.107 0.324,-0.097 0.362,-0.097C0.398,-0.097 0.43,-0.106 0.457,-0.125C0.484,-0.143 0.503,-0.17 0.514,-0.205L0.656,-0.205C0.644,-0.158 0.624,-0.118 0.596,-0.085C0.567,-0.052 0.533,-0.028 0.494,-0.011C0.454,0.006 0.411,0.015 0.364,0.015C0.298,0.015 0.241,0.001 0.193,-0.028C0.145,-0.057 0.108,-0.097 0.083,-0.15C0.057,-0.203 0.044,-0.266 0.044,-0.339C0.044,-0.412 0.057,-0.475 0.083,-0.529C0.109,-0.582 0.146,-0.622 0.194,-0.652C0.242,-0.681 0.299,-0.695 0.366,-0.695C0.413,-0.695 0.457,-0.687 0.497,-0.67C0.537,-0.653 0.571,-0.627 0.6,-0.594C0.628,-0.561 0.647,-0.519 0.657,-0.47Z" style="fill-rule:nonzero;"/>
                </g>
                <g transform="matrix(95.8914,0,0,95.8914,4003.57,1361.26)">
                    <path d="M0.067,-0L0.067,-0.68L0.202,-0.68L0.202,-0L0.067,-0ZM0.503,-0L0.503,-0.68L0.637,-0.68L0.637,-0L0.503,-0ZM0.165,-0.294L0.165,-0.404L0.529,-0.404L0.529,-0.294L0.165,-0.294Z" style="fill-rule:nonzero;"/>
                </g>
                <g transform="matrix(95.8914,0,0,95.8914,4066.37,1361.26)">
                    <path d="M0.067,-0L0.067,-0.68L0.202,-0.68L0.202,-0L0.067,-0ZM0.165,-0L0.165,-0.107L0.545,-0.107L0.545,-0L0.165,-0ZM0.165,-0.573L0.165,-0.68L0.545,-0.68L0.545,-0.573L0.165,-0.573ZM0.165,-0.297L0.165,-0.403L0.507,-0.403L0.507,-0.297L0.165,-0.297Z" style="fill-rule:nonzero;"/>
                </g>
                <g transform="matrix(95.8914,0,0,95.8914,4117.77,1361.26)">
                    <path d="M0.067,-0L0.067,-0.68L0.194,-0.68L0.202,-0L0.067,-0ZM0.68,-0L0.687,-0.68L0.814,-0.68L0.814,-0L0.68,-0ZM0.489,-0L0.392,-0L0.245,-0.373L0.146,-0.68L0.246,-0.68L0.418,-0.241L0.451,-0.129L0.435,-0.129L0.469,-0.241L0.64,-0.68L0.734,-0.68L0.635,-0.371L0.489,-0Z" style="fill-rule:nonzero;"/>
                </g>
                <g transform="matrix(95.8914,0,0,95.8914,4197.46,1361.26)">
                    <rect x="0.067" y="-0.68" width="0.135" height="0.68" style="fill-rule:nonzero;"/>
                </g>
                <g transform="matrix(95.8914,0,0,95.8914,4218.46,1361.26)">
                    <path d="M0.181,-0.509C0.181,-0.488 0.187,-0.472 0.199,-0.46C0.21,-0.447 0.226,-0.438 0.245,-0.431C0.264,-0.424 0.286,-0.418 0.31,-0.413C0.334,-0.408 0.359,-0.403 0.385,-0.398C0.41,-0.393 0.435,-0.386 0.459,-0.377C0.483,-0.368 0.505,-0.357 0.525,-0.343C0.544,-0.328 0.56,-0.31 0.571,-0.287C0.582,-0.264 0.588,-0.235 0.588,-0.2C0.588,-0.155 0.576,-0.116 0.554,-0.084C0.531,-0.051 0.499,-0.027 0.459,-0.01C0.419,0.007 0.373,0.015 0.322,0.015C0.27,0.015 0.224,0.007 0.184,-0.009C0.143,-0.025 0.11,-0.049 0.084,-0.082C0.057,-0.115 0.04,-0.156 0.031,-0.205L0.172,-0.205C0.181,-0.169 0.198,-0.141 0.224,-0.122C0.249,-0.103 0.282,-0.093 0.323,-0.093C0.365,-0.093 0.397,-0.101 0.418,-0.118C0.439,-0.134 0.45,-0.156 0.45,-0.183C0.45,-0.205 0.444,-0.223 0.433,-0.236C0.422,-0.249 0.406,-0.26 0.387,-0.268C0.368,-0.275 0.346,-0.282 0.322,-0.287C0.298,-0.292 0.273,-0.298 0.248,-0.304C0.222,-0.309 0.197,-0.316 0.173,-0.325C0.148,-0.333 0.126,-0.344 0.107,-0.358C0.088,-0.372 0.072,-0.39 0.061,-0.413C0.05,-0.435 0.044,-0.463 0.044,-0.497C0.044,-0.533 0.054,-0.566 0.073,-0.596C0.092,-0.626 0.121,-0.65 0.158,-0.668C0.195,-0.686 0.241,-0.695 0.294,-0.695C0.34,-0.695 0.383,-0.687 0.422,-0.672C0.46,-0.657 0.493,-0.633 0.52,-0.601C0.546,-0.569 0.562,-0.527 0.569,-0.476L0.426,-0.476C0.418,-0.515 0.403,-0.543 0.38,-0.561C0.357,-0.578 0.327,-0.587 0.29,-0.587C0.256,-0.587 0.229,-0.58 0.21,-0.566C0.191,-0.551 0.181,-0.532 0.181,-0.509Z" style="fill-rule:nonzero;"/>
                </g>
                <g transform="matrix(95.8914,0,0,95.8914,4269.86,1361.26)">
                    <path d="M0.246,-0L0.246,-0.68L0.381,-0.68L0.381,-0L0.246,-0ZM0.027,-0.569L0.027,-0.68L0.6,-0.68L0.6,-0.569L0.027,-0.569Z" style="fill-rule:nonzero;"/>
                </g>
                <g transform="matrix(95.8914,0,0,95.8914,4329.98,1361.26)">
                </g>
            </g>
        </g>
    </g>
</svg>
