<?xml version="1.0" encoding="UTF-8" standalone="no"?>
<!DOCTYPE svg PUBLIC "-//W3C//DTD SVG 1.1//EN" "http://www.w3.org/Graphics/SVG/1.1/DTD/svg11.dtd">
<svg width="100%" height="100%" viewBox="0 0 151 151" version="1.1" xmlns="http://www.w3.org/2000/svg" xmlns:xlink="http://www.w3.org/1999/xlink" xml:space="preserve" xmlns:serif="http://www.serif.com/" style="fill-rule:evenodd;clip-rule:evenodd;stroke-linejoin:round;stroke-miterlimit:2;">
    <g transform="matrix(1,0,0,1,-3658,-1200)">
        <g transform="matrix(1,0,0,1,-0.333333,0)">
            <g transform="matrix(0.815478,0,0,0.815478,1420.32,188.669)">
                <g transform="matrix(1,0,0,1,1578.01,772.097)">
                    <path d="M1250.57,652.903L1166.4,652.903L1166.4,567.702L1180.93,567.702L1180.93,638.376L1250.57,638.376L1250.57,652.903ZM1336.71,567.702L1351.23,567.702L1351.23,652.903L1267.07,652.903L1267.07,638.376L1336.71,638.376L1336.71,567.702ZM1267.07,482.6L1267.07,468.073L1351.23,468.073L1351.23,551.193L1336.71,551.193L1336.71,482.6L1267.07,482.6ZM1166.4,551.193L1166.4,468.073L1250.57,468.073L1250.57,482.6L1180.93,482.6L1180.93,551.193L1166.4,551.193Z"/>
                </g>
                <g transform="matrix(1.55409,0,0,1.55409,761.685,367.881)">
                    <path d="M1278.8,625.395L1288.38,625.395C1290.4,632.499 1296.94,637.708 1304.69,637.708C1308.99,637.708 1313.09,636.08 1316.2,633.202L1316.2,639.83L1322.83,639.83C1319.95,642.942 1318.33,647.046 1318.33,651.342C1318.33,658.845 1323.21,665.216 1329.97,667.447L1329.97,677.107C1325.3,676.148 1321.08,673.95 1317.67,670.871C1312.33,666.056 1308.98,659.087 1308.98,651.342C1308.98,649.749 1309.12,648.173 1309.4,646.631C1307.86,646.912 1306.29,647.056 1304.69,647.056C1296.95,647.056 1289.98,643.701 1285.16,638.365C1281.94,634.792 1279.68,630.331 1278.8,625.395ZM1340.59,667.447C1347.35,665.216 1352.24,658.845 1352.24,651.342C1352.24,647.046 1350.61,642.942 1347.73,639.83L1354.36,639.83L1354.36,633.202C1357.47,636.08 1361.58,637.708 1365.87,637.708C1373.62,637.708 1380.16,632.499 1382.18,625.395L1391.77,625.395C1390.88,630.331 1388.62,634.792 1385.4,638.365C1380.59,643.701 1373.62,647.056 1365.87,647.056C1364.28,647.056 1362.7,646.912 1361.16,646.631C1361.44,648.173 1361.59,649.749 1361.59,651.342C1361.59,659.087 1358.23,666.056 1352.89,670.871C1349.48,673.95 1345.26,676.148 1340.59,677.107L1340.59,667.447ZM1381.74,614.772C1379.32,608.361 1373.12,603.797 1365.87,603.797C1361.58,603.797 1357.47,605.426 1354.36,608.303L1354.36,601.675L1347.73,601.675C1350.61,598.563 1352.24,594.46 1352.24,590.164C1352.24,582.661 1347.35,576.289 1340.59,574.058L1340.59,564.398C1345.26,565.357 1349.48,567.556 1352.89,570.634C1358.23,575.45 1361.59,582.418 1361.59,590.164C1361.59,591.757 1361.44,593.333 1361.16,594.874C1362.7,594.594 1364.28,594.449 1365.87,594.449C1373.62,594.449 1380.59,597.805 1385.4,603.14C1388.33,606.387 1390.46,610.368 1391.49,614.772L1381.74,614.772ZM1317.67,570.634C1321.08,567.556 1325.3,565.357 1329.97,564.398L1329.97,574.058C1323.21,576.289 1318.33,582.661 1318.33,590.164C1318.33,594.46 1319.95,598.563 1322.83,601.675L1316.2,601.675L1316.2,608.303C1313.09,605.426 1308.99,603.797 1304.69,603.797C1297.44,603.797 1291.24,608.361 1288.82,614.772L1279.07,614.772C1280.1,610.368 1282.23,606.387 1285.16,603.14C1289.98,597.805 1296.95,594.449 1304.69,594.449C1306.29,594.449 1307.86,594.594 1309.4,594.874C1309.12,593.333 1308.98,591.757 1308.98,590.164C1308.98,582.418 1312.33,575.45 1317.67,570.634Z"/>
                </g>
            </g>
        </g>
    </g>
</svg>
